<?xml version="1.0" encoding="UTF-8"?>
<svg id="Layer_1" data-name="Layer 1" xmlns="http://www.w3.org/2000/svg" viewBox="0 0 982.988 152.154">
  <defs>
    <style>
      .cls-1 {
        fill: #333;
      }

      .cls-1, .cls-2, .cls-3 {
        stroke-width: 0px;
      }

      .cls-2 {
        fill: #ccc;
      }

      .cls-3 {
        fill: #07d990;
      }
    </style>
  </defs>
  <g>
    <path class="cls-3" d="m269.676,73.424c0-16.079-9.6-29.039-28.559-29.039-16.079,0-31.438,11.76-31.438,31.438,0,19.92,14.639,31.439,33.599,31.439,7.439,0,16.799-2.4,23.999-6.96l-6.72-12.239c-5.28,2.399-9.6,3.6-14.399,3.6-8.713,0-13.972-2.858-15.809-9.6h38.487c.24-1.44.84-5.04.84-8.64Zm-27.839-13.439c5.615,0,8.708,3.026,9.576,8.64h-20.964c1.616-5.853,5.507-8.64,11.388-8.64Z"/>
    <path class="cls-3" d="m280.958,115.662c0-4.92,3.119-8.64,9.119-11.52v-.48c-3.359-2.159-6-5.279-6-10.319,0-4.08,3-8.399,7.2-11.279v-.48c-4.56-2.88-8.16-8.399-8.16-15.359,0-14.879,12.6-21.839,26.52-21.839,3.6,0,7.199.479,10.199,1.44h24.239v14.879h-10.8c.84,1.439,1.68,3.84,1.68,6.24,0,14.159-11.039,19.919-25.318,19.919-2.16,0-4.681-.24-7.56-.84-1.44,1.079-1.92,1.8-1.92,3.479,0,2.64,2.64,3.6,9.359,3.6h10.199c15.84,0,24.959,4.561,24.959,15.6,0,12.959-14.279,21.839-36.719,21.839-14.879,0-26.998-4.079-26.998-14.879Zm44.158-3.36c0-3.119-3.36-3.6-9.36-3.6h-5.999c-4.681,0-7.08-.24-9.12-.72-2.04,1.439-3,2.64-3,4.319,0,3.84,5.52,5.52,13.56,5.52s13.92-2.159,13.92-5.52Zm-8.16-46.078c0-5.52-3.359-8.159-7.319-8.159s-7.2,2.64-7.2,8.159c0,5.76,3.24,8.4,7.2,8.4s7.319-2.641,7.319-8.4Z"/>
    <path class="cls-3" d="m355.717,127.182l3.6-15.6c1.56.479,3,.72,4.319.72,6.36,0,9.6-2.399,11.16-6l.96-2.64-25.199-57.837h20.399l8.399,23.039c2.04,5.76,3.72,11.759,5.399,18.238h.48c1.439-6.119,3.359-12.239,5.16-18.238l7.199-23.039h19.439l-22.56,59.037c-6.359,16.199-13.439,23.52-29.158,23.52-3.72,0-6.84-.48-9.6-1.2Z"/>
    <path class="cls-1" d="m452.166,88.448V24.144h-21.863v-4.632h27.191v69.656c0,9.099,4.385,13.397,12.567,13.397,3.71,0,7.659-.928,11.881-2.989l1.733,4.119c-4.962,2.367-8.628,3.567-14.376,3.567-10.906,0-17.134-5.715-17.134-18.814Z"/>
    <path class="cls-1" d="m502.673,91.489c0-12.904,12.938-19.002,44.193-21.752-.098-9.492-3.938-18.31-17.14-18.31-8.696,0-17.097,4.474-21.798,7.834l-2.474-3.924c4.602-3.315,14.615-8.574,24.902-8.574,15.436,0,21.837,9.917,21.837,22.251v36.808h-4.522l-.577-8.619h-.273c-6.621,5.303-15.546,10.06-24.055,10.06-10.308,0-20.094-4.984-20.094-15.773Zm44.193.754v-18.44c-29.328,2.619-38.724,8.151-38.724,17.403,0,8.261,7.748,11.425,15.517,11.425,7.386,0,15.089-3.557,23.207-10.388Z"/>
    <path class="cls-1" d="m576.319,48.204h4.489l.577,8.313h.273c5.749-5.597,14.04-9.754,21.557-9.754,16.244,0,24.382,11.553,24.382,29.409,0,19.537-12.567,31.09-26.956,31.09-5.487,0-13.256-3.022-19.06-8.172h-.24l.305,11.738v21.078h-5.327V48.204Zm45.71,27.969c0-14.15-5.586-24.68-19.673-24.68-6.033,0-13.519,3.339-20.71,10.562v32.01c6.711,6.144,14.229,8.468,18.713,8.468,12.592,0,21.67-10.737,21.67-26.36Z"/>
    <path class="cls-1" d="m643.745,77.133c0-19.297,12.828-30.369,27.926-30.369s27.925,11.072,27.925,30.369c0,19.058-12.828,30.13-27.925,30.13s-27.926-11.072-27.926-30.13Zm50.282,0c0-15.188-9.362-25.672-22.356-25.672s-22.357,10.484-22.357,25.672,9.362,25.433,22.357,25.433,22.356-10.277,22.356-25.433Z"/>
    <path class="cls-1" d="m720.317,48.204h4.489l.577,11.062h.48c6.644-7.146,13.451-12.503,22.745-12.503,13.975,0,20.684,7.548,20.684,23.17v35.889h-5.328v-35.181c0-12.875-4.801-19.083-16.203-19.083-8.183,0-13.824,4.267-22.117,12.974v41.29h-5.327v-57.618Z"/>
    <path class="cls-2" d="m808.484,99.422c0-4.951,3.445-7.84,7.186-7.84s7.185,2.889,7.185,7.84c0,4.984-3.445,7.841-7.185,7.841s-7.186-2.856-7.186-7.841Z"/>
    <path class="cls-2" d="m864.315,19.512h5.327v25.027l-.337,15.11h.272c6.841-7.529,13.855-12.886,23.029-12.886,13.975,0,20.684,7.548,20.684,23.17v35.889h-5.328v-35.181c0-12.875-4.801-19.083-16.203-19.083-8.183,0-13.824,4.267-22.117,12.974v41.29h-5.327V19.512Z"/>
    <path class="cls-2" d="m934.044,84.093v-35.889h5.328v35.181c0,12.842,4.801,19.083,16.235,19.083,8.118,0,14.174-4.081,22.052-13.039v-41.225h5.328v57.618h-4.521l-.578-11.161h-.48c-6.229,7.277-13.418,12.602-22.68,12.602-13.975,0-20.684-7.549-20.684-23.17Z"/>
  </g>
  <g>
    <path class="cls-3" d="m54.74,123.924v-4.889H14.902v33.119h48.749c-5.647-6.138-8.729-15.412-8.911-28.23Z"/>
    <path class="cls-3" d="m54.74,5.952c-8.752,3.981-18.465,6.573-33.598,8.928v25.438h33.598V5.952Z"/>
  </g>
  <path class="cls-1" d="m96.019,119.035V0h-30.25v125.365c0,17.958,8.542,26.566,24.495,26.79h38.394v-33.119h-32.639Z"/>
</svg>