<?xml version="1.0" encoding="UTF-8"?>
<svg id="Layer_1" data-name="Layer 1" xmlns="http://www.w3.org/2000/svg" viewBox="0 0 60 60">
  <defs>
    <style>
      .cls-1 {
        fill: #fff;
        stroke-width: 0px;
      }
    </style>
  </defs>
  <path class="cls-1" d="m30,3.675C15.484,3.675,3.676,15.484,3.676,30s11.809,26.325,26.324,26.325,26.324-11.81,26.324-26.325S44.515,3.675,30,3.675Zm7.441,16.618c0,.26-.211.47-.471.471l-2.992.002c-1.975,0-2.335.769-2.335,2.283v3.141h5.132c.135,0,.264.059.353.16s.131.236.114.37l-.731,5.656c-.029.234-.23.409-.466.409h-4.401v14.044c0,.26-.211.47-.471.47h-5.839c-.26,0-.47-.21-.47-.47v-14.044h-4.416c-.26,0-.47-.21-.47-.47v-5.655c0-.26.21-.471.47-.471h4.416v-3.701c0-4.901,2.967-7.946,7.743-7.946,2.053,0,3.868.153,4.425.226.234.031.409.231.409.466v5.059Z"/>
</svg>