<?xml version="1.0" encoding="UTF-8"?>
<svg id="Layer_1" data-name="Layer 1" xmlns="http://www.w3.org/2000/svg" viewBox="0 0 30 30">
  <defs>
    <style>
      .cls-1 {
        fill: #fff;
        stroke-width: 0px;
      }
    </style>
  </defs>
  <path class="cls-1" d="m22.95,24c-2.083,0-4.142-.454-6.175-1.363-2.033-.908-3.883-2.196-5.55-3.863s-2.954-3.517-3.863-5.55c-.908-2.033-1.363-4.092-1.363-6.175,0-.3.1-.55.3-.75s.45-.3.75-.3h4.05c.233,0,.442.079.625.238s.292.346.325.563l.65,3.5c.033.267.025.492-.025.675s-.142.342-.275.475l-2.425,2.45c.333.617.729,1.213,1.188,1.788s.963,1.129,1.513,1.663c.517.517,1.058.996,1.625,1.438s1.167.846,1.8,1.213l2.35-2.35c.15-.15.346-.263.588-.338s.479-.096.713-.063l3.45.7c.233.067.425.188.575.363s.225.371.225.588v4.05c0,.3-.1.55-.3.75s-.45.3-.75.3Zm-13.925-12l1.65-1.65-.425-2.35h-2.225c.083.683.2,1.358.35,2.025s.367,1.325.65,1.975Zm8.95,8.95c.65.283,1.313.508,1.988.675s1.354.275,2.038.325v-2.2l-2.35-.475-1.675,1.675Z"/>
</svg>