<?xml version="1.0" encoding="UTF-8"?>
<svg id="Layer_1" data-name="Layer 1" xmlns="http://www.w3.org/2000/svg" viewBox="0 0 60 60">
  <defs>
    <style>
      .cls-1 {
        fill: #fff;
        stroke-width: 0px;
      }
    </style>
  </defs>
  <path class="cls-1" d="m29.582,23.759c.516,0,.764-.408.764-1.226v-3.717c0-.818-.248-1.225-.764-1.225s-.765.407-.765,1.225v3.717c0,.817.247,1.226.765,1.226Z"/>
  <path class="cls-1" d="m30,3.675C15.485,3.675,3.676,15.484,3.676,30s11.809,26.325,26.324,26.325,26.325-11.81,26.325-26.325S44.516,3.675,30,3.675Zm13.993,32.662c0,2.021,0,4.312-.483,6.407-.407,1.774-1.872,3.1-3.644,3.299-3.053.341-6.145.369-9.31.369h-1.223c-3.164,0-6.257-.028-9.309-.369-1.774-.199-3.238-1.524-3.644-3.299-.48-2.088-.48-4.283-.48-6.407,0-2.015,0-4.298.485-6.407.408-1.775,1.873-3.101,3.645-3.299,3.055-.342,6.097-.369,9.472-.369h.897v.47h0v-.47c3.374,0,6.416.027,9.471.369,1.773.198,3.238,1.524,3.645,3.299.478,2.081.478,4.265.478,6.377v.03Zm-14.411-20.188c.802,0,1.424.303,1.868.906.335.447.497,1.137.497,2.081v3.095c0,.94-.162,1.635-.497,2.078-.444.603-1.066.904-1.868.904-.797,0-1.422-.302-1.864-.904-.341-.443-.502-1.139-.502-2.078v-3.095c0-.944.161-1.633.502-2.081.442-.604,1.067-.906,1.864-.906Zm-7.377.39c-.373-1.1-.764-2.205-1.138-3.303h1.869l1.26,4.656,1.211-4.656h1.797-.002l-2.135,7.054v4.802h-1.776v-4.802c-.16-.851-.516-2.098-1.085-3.751Zm12.675,6.844c.034.249.159.375.375.375.319,0,.656-.248,1.012-.749v-6.753h1.601v8.835h-1.601v-.965c-.639.733-1.246,1.087-1.829,1.087-.517,0-.872-.21-1.03-.657-.09-.267-.143-.69-.143-1.313v-6.986h1.597v6.503c0,.376,0,.571.019.623Z"/>
  <polygon class="cls-1" points="22.418 42.009 22.418 31.928 24.316 31.928 24.316 30.274 18.793 30.274 18.793 31.928 20.656 31.928 20.656 42.009 22.418 42.009"/>
  <path class="cls-1" d="m38.74,33.159c-.808,0-1.441.297-1.897.896-.338.441-.489,1.125-.489,2.061v3.062c0,.927.172,1.618.509,2.054.457.598,1.088.898,1.918.898s1.476-.315,1.915-.948c.192-.28.315-.6.369-.949.016-.16.035-.512.035-1.021v-.23h-1.618c0,.636-.018.985-.033,1.071-.091.425-.318.637-.709.637-.543,0-.808-.403-.808-1.214v-1.549h3.168v-1.81c0-.936-.159-1.619-.491-2.061-.443-.6-1.074-.896-1.869-.896Zm.775,3.447h-1.583v-.808c0-.809.265-1.214.795-1.214.523,0,.788.405.788,1.214v.808Z"/>
  <path class="cls-1" d="m29.103,42.009v-8.743h-1.586v6.682c-.35.495-.684.741-1.001.741-.212,0-.332-.125-.371-.37-.014-.052-.014-.246-.014-.616v-6.436h-1.583v6.913c0,.618.053,1.034.14,1.3.158.443.509.651,1.021.651.582,0,1.18-.353,1.809-1.075v.954h1.586Z"/>
  <path class="cls-1" d="m30.475,30.274v11.734h1.584v-.848c.529.654,1.072.969,1.636.969.632,0,1.056-.333,1.267-.983.105-.37.16-.952.16-1.761v-3.482c0-.827-.055-1.406-.16-1.758-.211-.655-.635-.986-1.267-.986-.581,0-1.124.319-1.636.947v-3.832h-1.584Zm2.373,4.31c.457,0,.689.405.689,1.193v3.732c0,.789-.232,1.178-.689,1.178-.26,0-.525-.125-.789-.389v-5.329c.264-.261.529-.386.789-.386Z"/>
</svg>