<?xml version="1.0" encoding="UTF-8"?>
<svg id="Layer_1" data-name="Layer 1" xmlns="http://www.w3.org/2000/svg" viewBox="0 0 60 60">
  <defs>
    <style>
      .cls-1 {
        fill: #fff;
        stroke-width: 0px;
      }
    </style>
  </defs>
  <path class="cls-1" d="m29.999,3.675C15.484,3.675,3.676,15.484,3.676,30s11.809,26.325,26.323,26.325,26.325-11.81,26.325-26.325S44.515,3.675,29.999,3.675Zm.086,14.922c-8.36,0-12.575,5.995-12.575,10.992,0,3.026,1.145,5.72,3.603,6.722.402.165.763.007.88-.441.081-.309.276-1.086.357-1.412.12-.441.074-.595-.252-.979-.706-.837-1.159-1.917-1.159-3.452,0-4.445,3.325-8.424,8.661-8.424,4.725,0,7.321,2.887,7.321,6.741,0,5.074-2.245,9.354-5.58,9.354-1.838,0-3.215-1.522-2.773-3.388.526-2.229,1.553-4.636,1.553-6.244,0-1.439-.773-2.64-2.372-2.64-1.883,0-3.396,1.947-3.396,4.554,0,1.66.562,2.782.562,2.782,0,0-1.925,8.159-2.264,9.59-.314,1.335-.355,2.809-.306,4.04-6.199-2.722-10.531-8.911-10.531-16.115,0-9.72,7.878-17.597,17.594-17.597s17.594,7.877,17.594,17.597-7.877,17.594-17.594,17.594c-1.731,0-3.404-.254-4.986-.72.669-1.057,1.399-2.415,1.773-3.77.215-.783,1.238-4.837,1.238-4.837.61,1.165,2.396,2.192,4.297,2.192,5.656,0,9.495-5.156,9.495-12.058,0-5.22-4.423-10.081-11.14-10.081Z"/>
</svg>