<?xml version="1.0" encoding="UTF-8"?>
<svg id="Layer_1" data-name="Layer 1" xmlns="http://www.w3.org/2000/svg" viewBox="0 0 30 30">
  <defs>
    <style>
      .cls-1 {
        fill: #333;
        stroke-width: 0px;
      }
    </style>
  </defs>
  <path class="cls-1" d="m15,25c-1.383,0-2.683-.263-3.9-.788s-2.275-1.238-3.175-2.138-1.613-1.958-2.138-3.175-.788-2.517-.788-3.9.263-2.683.788-3.9,1.238-2.275,2.138-3.175,1.958-1.613,3.175-2.138,2.517-.788,3.9-.788,2.683.263,3.9.788,2.275,1.238,3.175,2.138,1.613,1.958,2.138,3.175.788,2.517.788,3.9v1.45c0,.983-.338,1.821-1.013,2.513s-1.504,1.038-2.488,1.038c-.583,0-1.133-.125-1.65-.375s-.95-.608-1.3-1.075c-.483.483-1.029.846-1.638,1.088s-1.246.363-1.913.363c-1.383,0-2.563-.488-3.538-1.463s-1.463-2.154-1.463-3.538.488-2.563,1.463-3.538,2.154-1.463,3.538-1.463,2.563.488,3.538,1.463,1.463,2.154,1.463,3.538v1.45c0,.433.142.8.425,1.1s.642.45,1.075.45.792-.15,1.075-.45.425-.667.425-1.1v-1.45c0-2.233-.775-4.125-2.325-5.675s-3.442-2.325-5.675-2.325-4.125.775-5.675,2.325-2.325,3.442-2.325,5.675.775,4.125,2.325,5.675,3.442,2.325,5.675,2.325h5v2h-5Zm0-7c.833,0,1.542-.292,2.125-.875s.875-1.292.875-2.125-.292-1.542-.875-2.125-1.292-.875-2.125-.875-1.542.292-2.125.875-.875,1.292-.875,2.125.292,1.542.875,2.125,1.292.875,2.125.875Z"/>
</svg>