<?xml version="1.0" encoding="UTF-8"?>
<svg id="Layer_1" data-name="Layer 1" xmlns="http://www.w3.org/2000/svg" viewBox="0 0 60 60">
  <defs>
    <style>
      .cls-1 {
        fill: #fff;
        stroke-width: 0px;
      }
    </style>
  </defs>
  <path class="cls-1" d="m42.418,20.605c-.289-.744-.634-1.274-1.192-1.832-.557-.557-1.088-.903-1.832-1.192-.561-.218-1.405-.478-2.958-.548-1.68-.077-2.184-.093-6.437-.093s-4.757.016-6.437.093c-1.553.071-2.397.33-2.958.548-.744.289-1.274.634-1.832,1.192-.557.557-.903,1.088-1.192,1.832-.218.561-.478,1.405-.549,2.958-.077,1.68-.093,2.184-.093,6.437s.016,4.757.093,6.437c.071,1.553.33,2.397.549,2.958.289.744.634,1.274,1.192,1.832.557.557,1.088.903,1.832,1.192.561.218,1.405.478,2.958.549,1.68.077,2.183.093,6.437.093s4.758-.016,6.437-.093c1.553-.071,2.397-.33,2.958-.549.744-.289,1.274-.634,1.832-1.192.557-.557.903-1.088,1.192-1.832.218-.561.478-1.405.549-2.958.077-1.68.093-2.184.093-6.437s-.016-4.757-.093-6.437c-.071-1.553-.33-2.397-.549-2.958Zm-12.418,17.576c-4.518,0-8.18-3.662-8.18-8.18s3.663-8.18,8.18-8.18,8.18,3.663,8.18,8.18-3.662,8.18-8.18,8.18Zm8.504-14.772c-1.056,0-1.912-.856-1.912-1.912s.856-1.912,1.912-1.912,1.912.856,1.912,1.912-.856,1.912-1.912,1.912Z"/>
  <circle class="cls-1" cx="30" cy="30" r="5.31" transform="translate(-6.09 7.695) rotate(-13.283)"/>
  <path class="cls-1" d="m30,3.675C15.461,3.675,3.675,15.461,3.675,30s11.786,26.325,26.325,26.325,26.325-11.786,26.325-26.325S44.539,3.675,30,3.675Zm15.834,32.893c-.077,1.696-.347,2.854-.74,3.867-.407,1.048-.952,1.936-1.837,2.822-.886.886-1.774,1.43-2.822,1.837-1.013.394-2.171.663-3.867.74-1.699.078-2.242.096-6.568.096s-4.869-.018-6.568-.096c-1.696-.077-2.854-.347-3.867-.74-1.048-.407-1.936-.952-2.822-1.837-.886-.886-1.43-1.774-1.837-2.822-.394-1.013-.663-2.171-.74-3.867-.078-1.699-.096-2.242-.096-6.568s.018-4.869.096-6.568c.077-1.696.347-2.854.74-3.867.407-1.048.952-1.936,1.837-2.822.886-.886,1.774-1.43,2.822-1.837,1.013-.394,2.171-.663,3.867-.74,1.699-.078,2.242-.096,6.568-.096s4.869.018,6.568.096c1.696.077,2.854.347,3.867.74,1.048.407,1.936.952,2.822,1.837.886.886,1.43,1.774,1.837,2.822.394,1.013.663,2.171.74,3.867.078,1.699.096,2.242.096,6.568s-.018,4.869-.096,6.568Z"/>
</svg>