<?xml version="1.0" encoding="UTF-8"?>
<svg id="Layer_1" data-name="Layer 1" xmlns="http://www.w3.org/2000/svg" viewBox="0 0 30 30">
  <defs>
    <style>
      .cls-1 {
        fill: #fff;
        stroke-width: 0px;
      }
    </style>
  </defs>
  <path class="cls-1" d="m15,15c.55,0,1.021-.196,1.413-.588.392-.392.588-.863.588-1.413s-.196-1.021-.588-1.413-.863-.588-1.413-.588-1.021.196-1.413.588-.588.863-.588,1.413.196,1.021.588,1.413c.392.392.863.588,1.413.588Zm0,7.35c2.033-1.867,3.542-3.563,4.525-5.088.983-1.525,1.475-2.879,1.475-4.063,0-1.817-.579-3.304-1.738-4.463s-2.579-1.738-4.263-1.738-3.104.579-4.263,1.738-1.738,2.646-1.738,4.463c0,1.183.492,2.538,1.475,4.063.983,1.525,2.492,3.221,4.525,5.088Zm0,2.65c-2.683-2.283-4.688-4.404-6.013-6.363s-1.988-3.771-1.988-5.438c0-2.5.804-4.492,2.413-5.975,1.608-1.483,3.471-2.225,5.588-2.225s3.979.742,5.588,2.225,2.413,3.475,2.413,5.975c0,1.667-.663,3.479-1.988,5.438-1.325,1.958-3.329,4.079-6.013,6.363Z"/>
</svg>